<?xml version="1.0" encoding="UTF-8"?>
<svg id="Layer_2" data-name="Layer 2" xmlns="http://www.w3.org/2000/svg" viewBox="0 0 334.16 230.89">
  <defs>
    <style>
      .cls-1, .cls-2, .cls-3, .cls-4, .cls-5, .cls-6 {
        stroke-miterlimit: 10;
      }

      .cls-1, .cls-4, .cls-6 {
        stroke: #fff;
        stroke-width: 1.07px;
      }

      .cls-1, .cls-5 {
        fill: none;
      }

      .cls-7 {
        letter-spacing: -.02em;
      }

      .cls-8 {
        font-size: 60px;
      }

      .cls-8, .cls-9, .cls-10, .cls-6 {
        fill: #27437a;
      }

      .cls-8, .cls-10 {
        font-family: AbigailNagita, 'Abigail Nagita';
      }

      .cls-11 {
        letter-spacing: 0em;
      }

      .cls-12, .cls-2 {
        fill: #fff;
      }

      .cls-13 {
        fill: #dddde0;
      }

      .cls-10 {
        font-size: 55px;
      }

      .cls-14 {
        font-family: Poppins-SemiBold, Poppins;
        font-size: 13.87px;
        font-weight: 600;
      }

      .cls-14, .cls-4 {
        fill: #68b5b1;
      }

      .cls-2, .cls-3, .cls-5 {
        stroke: #27437a;
        stroke-width: 1.35px;
      }

      .cls-3 {
        fill: #c6c6cb;
      }

      .cls-15 {
        letter-spacing: -.01em;
      }
    </style>
  </defs>
  <g id="OBJECTS">
    <g>
      <g>
        <g>
          <text class="cls-8" transform="translate(108.26 68.38)"><tspan x="0" y="0">S</tspan><tspan class="cls-15" x="40.38" y="0">p</tspan><tspan x="77.1" y="0">r</tspan><tspan class="cls-7" x="107.04" y="0">u</tspan><tspan class="cls-11" x="145.68" y="0">ce </tspan></text>
          <text class="cls-10" transform="translate(46.32 112.87)"><tspan x="0" y="0">Sage</tspan></text>
        </g>
        <text class="cls-14" transform="translate(47.59 128.11)"><tspan x="0" y="0">Cleaning</tspan></text>
      </g>
      <g>
        <path class="cls-13" d="M69.79,166.46c1.82-.26,3.09-1.95,2.83-3.77-.26-1.82-1.95-3.09-3.77-2.83-.74,.11-1.38,.46-1.88,.95l-.05-.04c1.26-1.45,1.94-3.4,1.65-5.45-.53-3.74-4-6.34-7.73-5.8-3.64,.52-6.17,3.81-5.82,7.43h-.04c-.89-5.14-5.71-8.68-10.92-7.94-5.3,.76-8.99,5.67-8.24,10.97,.76,5.3,5.67,8.99,10.97,8.24,.73-.1,1.43-.29,2.09-.55l5.42,12.34,7.7-6.33c1,1.73,2.97,2.78,5.07,2.48,2.76-.39,4.67-2.95,4.28-5.7-.27-1.93-1.62-3.43-3.34-4.03l.07-.2c.52,.21,1.1,.3,1.69,.21Z"/>
        <path class="cls-13" d="M189.83,166.67c.15-2.61-1.84-4.86-4.46-5.01-1.07-.06-2.07,.25-2.9,.81-.58-3.01-3.12-5.37-6.32-5.56-3.79-.22-7.04,2.67-7.26,6.46-.1,1.79,.5,3.44,1.55,4.73-.41-.14-.84-.24-1.29-.27-2.29-.13-4.29,1.3-5.01,3.36-2.23-2.71-5.61-4.44-9.39-4.44-3.04,0-5.81,1.12-7.94,2.97,.11-.55,.17-1.12,.17-1.7,0-4.61-3.74-8.35-8.35-8.35-2.1,0-3.99,.8-5.45,2.07-.57-5.07-4.86-9.01-10.08-9.01-5.57,0-10.09,4.49-10.15,10.05-1.14-1.21-2.75-1.98-4.55-1.98-3.46,0-6.27,2.81-6.27,6.27,0,.17,.04,.32,.05,.49-1.62-1.21-3.63-1.93-5.8-1.93-4.66,0-8.55,3.27-9.51,7.63-1.3-1.51-3.2-2.48-5.35-2.48-3.92,0-7.09,3.18-7.09,7.09,0,3.11,2.01,5.72,4.8,6.68v2.74s17.14,6.88,42.05,6.88c15.24,0,25.71-1.87,31.55-3.32,.63,.1,1.27,.17,1.93,.17,6.71,0,12.63-2.19,12.63-8.9,0-.51-.04-1.01-.1-1.5,.54,.25,1.13,.41,1.77,.45,1.59,.09,4.87-1.77,5.85-2.87h0l12.55-7.7h0c1.34-.77,2.29-2.18,2.38-3.84Z"/>
      </g>
      <g>
        <circle class="cls-13" cx="220.57" cy="29.08" r="7.44"/>
        <path class="cls-13" d="M224.16,21.86c0,2.72,2.21,4.93,4.93,4.93s4.93-2.21,4.93-4.93-2.21-4.93-4.93-4.93-4.93,2.21-4.93,4.93Z"/>
        <path class="cls-13" d="M199.42,25.08c0,2.22,1.8,4.02,4.02,4.02s4.02-1.8,4.02-4.02-1.8-4.02-4.02-4.02-4.02,1.8-4.02,4.02Z"/>
      </g>
      <g>
        <g>
          <g>
            <path class="cls-6" d="M123.47,204.13c36.32,0,68.7-16.79,89.85-43.02l-11.85-8.5c-19.83,22.83-49.04,37.28-81.65,37.28-59.72,0-108.13-48.41-108.13-108.13,0-25.77,8.78-50.56,23.83-69.14C18.26,32.79,8.07,60.1,8.07,88.73c0,63.73,51.67,115.4,115.4,115.4Z"/>
            <path class="cls-4" d="M123.47,204.13c-63.73,0-115.4-51.67-115.4-115.4,0-28.63,12.34-55.38,33.17-82.19,.16-.21,.33-.43,.5-.63C13.35,33.39,.53,67.5,.53,102c0,70.89,57.47,128.36,128.36,128.36,43.39,0,81.6-18.37,108-52.79l-23.57-16.46c-21.15,26.23-53.53,43.02-89.85,43.02Z"/>
          </g>
          <g>
            <path class="cls-1" d="M199.93,203.42c10.28-7.09,19.78-15.31,28.27-24.47"/>
            <path class="cls-1" d="M182,182.01c3.3-1.86,6.48-3.94,9.51-6.21"/>
            <path class="cls-1" d="M33.41,169.35c6.09,8.03,13.53,15.03,21.92,20.6,0,0,10.08,6.9,19.28,10.17"/>
            <path class="cls-1" d="M43.68,186.47c3.28,3.07,6.8,5.89,10.52,8.42"/>
          </g>
          <g>
            <path class="cls-12" d="M130.27,217.93c1.02,.13,1.99,.52,2.64,1.31s.76,1.69,.74,2.88c-.01-1.17,.16-2.09,.81-2.88,.65-.79,1.63-1.18,2.64-1.31-1.02-.13-1.99-.52-2.64-1.31-.65-.79-.83-1.71-.81-2.88,.01,1.18-.09,2.09-.74,2.88-.65,.79-1.63,1.18-2.64,1.31Z"/>
            <path class="cls-12" d="M115.29,213.74c.77,.1,1.5,.39,1.99,.99,.49,.6,.57,1.27,.56,2.17-.01-.88,.12-1.57,.61-2.17,.49-.6,1.23-.89,1.99-.99-.77-.1-1.5-.39-1.99-.99s-.62-1.29-.61-2.17c.01,.89-.07,1.57-.56,2.17s-1.23,.89-1.99,.99Z"/>
            <path class="cls-12" d="M22.48,162.86c.77,.1,1.5,.39,1.99,.99,.49,.6,.57,1.28,.56,2.17-.01-.88,.12-1.57,.61-2.17,.49-.6,1.23-.89,1.99-.99-.77-.1-1.5-.39-1.99-.99-.49-.6-.62-1.29-.61-2.17,.01,.89-.07,1.57-.56,2.17-.49,.6-1.23,.89-1.99,.99Z"/>
            <path class="cls-12" d="M170.67,203.42c1.33,.18,2.61,.68,3.46,1.72,.85,1.04,.99,2.22,.97,3.77-.02-1.53,.21-2.73,1.07-3.77,.85-1.04,2.13-1.54,3.46-1.72-1.33-.17-2.61-.68-3.46-1.72-.85-1.04-1.09-2.24-1.07-3.77,.02,1.55-.12,2.73-.97,3.77-.85,1.04-2.13,1.54-3.46,1.72Z"/>
          </g>
        </g>
        <g>
          <g>
            <path class="cls-2" d="M282.06,126.22c-11.09,25.12-25.92,43.31-41.69,56.62-14.57-7.66-30.11-18.31-42.98-28.57,8.04-6.61,15.27-14.2,21.48-22.56,7.78-10.47,16.08-19.31,22.74-30.52,12.85,9.5,26.49,18.02,40.45,25.02Z"/>
            <g>
              <g>
                <path class="cls-5" d="M266.42,144.74c2.75-3.44,5.07-7.22,6.89-11.23"/>
                <path class="cls-5" d="M274.25,130.98c.48-.84,.88-1.72,1.19-2.64"/>
              </g>
              <g>
                <path class="cls-5" d="M224.31,166.18c.79,.39,1.55,.85,2.27,1.38"/>
                <path class="cls-5" d="M228.97,169.64c.86,.54,1.73,1.08,2.59,1.62"/>
                <path class="cls-5" d="M234.32,172.75c.83,.53,1.69,1,2.58,1.41"/>
                <path class="cls-5" d="M239.02,175.53c.72,.55,1.52,.98,2.38,1.27"/>
              </g>
            </g>
          </g>
          <g>
            <rect class="cls-3" x="207.13" y="103.83" width="6.72" height="26.09" transform="translate(107.08 -100.55) rotate(35.52)"/>
            <g>
              <path class="cls-2" d="M255.22,146.8c1.02-1.43,.68-3.43-.74-4.45l-1.14-.81c1.43,1.02,3.43,.68,4.45-.74,1.02-1.43,.68-3.43-.74-4.45l-11.22-8.01c1.43,1.02,3.43,.68,4.45-.74,1.02-1.43,.68-3.43-.74-4.45l-13.91-9.93c-.2-.14-.41-.25-.63-.34h0s-3.79-1.53-7.82-.12l-6.37-4.55-15.17,21.25,5.8,4.14s3.54,4.06,8.26,7.44l19.52,13.93c1.43,1.02,3.43,.68,4.45-.74,1.02-1.43,.68-3.43-.74-4.45l3,2.14c1.43,1.02,3.43,.68,4.45-.74h0c1.02-1.43,.68-3.43-.74-4.45l1.14,.81c1.43,1.02,3.43,.68,4.45-.74Z"/>
              <g>
                <line class="cls-5" x1="243.34" y1="150.08" x2="233.88" y2="143.32"/>
                <line class="cls-5" x1="250.06" y1="147.04" x2="237.54" y2="138.2"/>
                <line class="cls-5" x1="254.01" y1="142.02" x2="241.34" y2="132.88"/>
                <line class="cls-5" x1="248.69" y1="130.36" x2="237.53" y2="122.39"/>
              </g>
            </g>
          </g>
        </g>
      </g>
      <g>
        <path class="cls-9" d="M94.14,19.48c4.31,.57,8.45,2.22,11.21,5.57s3.21,7.18,3.15,12.2c-.06-4.96,.69-8.85,3.46-12.2s6.91-5,11.21-5.57c-4.31-.57-8.45-2.22-11.21-5.57s-3.52-7.24-3.46-12.2c.06,5.02-.38,8.85-3.15,12.2s-6.91,5-11.21,5.57Z"/>
        <path class="cls-9" d="M58.98,12.34c2.99,.39,5.87,1.54,7.79,3.87,1.92,2.33,2.23,4.98,2.19,8.47-.04-3.44,.48-6.14,2.4-8.47,1.92-2.33,4.8-3.47,7.79-3.87-2.99-.39-5.87-1.54-7.79-3.87-1.92-2.33-2.44-5.03-2.4-8.47,.04,3.49-.27,6.14-2.19,8.47-1.92,2.33-4.8,3.47-7.79,3.87Z"/>
        <path class="cls-9" d="M80.88,34.29c2.13,.28,4.18,1.1,5.55,2.75,1.37,1.66,1.59,3.55,1.56,6.03-.03-2.45,.34-4.38,1.71-6.03,1.37-1.66,3.42-2.47,5.55-2.75-2.13-.28-4.18-1.1-5.55-2.75s-1.74-3.58-1.71-6.03c.03,2.48-.19,4.38-1.56,6.03-1.37,1.66-3.42,2.47-5.55,2.75Z"/>
      </g>
      <path class="cls-9" d="M256.51,97.01c1.02,.13,1.99,.52,2.64,1.31s.76,1.69,.74,2.88c-.01-1.17,.16-2.09,.81-2.88s1.63-1.18,2.64-1.31c-1.02-.13-1.99-.52-2.64-1.31-.65-.79-.83-1.71-.81-2.88,.01,1.18-.09,2.09-.74,2.88-.65,.79-1.63,1.18-2.64,1.31Z"/>
      <path class="cls-9" d="M64.67,146.2c1.18,.16,2.32,.61,3.08,1.53,.76,.92,.88,1.97,.87,3.35-.02-1.36,.19-2.43,.95-3.35,.76-.92,1.9-1.37,3.08-1.53-1.18-.16-2.32-.61-3.08-1.53s-.97-1.99-.95-3.35c.02,1.38-.11,2.43-.87,3.35-.76,.92-1.9,1.37-3.08,1.53Z"/>
      <path class="cls-9" d="M51.7,137.3c1.02,.13,1.99,.52,2.64,1.31,.65,.79,.76,1.69,.74,2.88-.01-1.17,.16-2.09,.81-2.88,.65-.79,1.63-1.18,2.64-1.31-1.02-.13-1.99-.52-2.64-1.31-.65-.79-.83-1.71-.81-2.88,.01,1.18-.09,2.09-.74,2.88-.65,.79-1.63,1.18-2.64,1.31Z"/>
      <path class="cls-9" d="M272.33,101.19c1.33,.18,2.61,.68,3.46,1.72,.85,1.04,.99,2.22,.97,3.77-.02-1.53,.21-2.73,1.07-3.77,.85-1.04,2.13-1.54,3.46-1.72-1.33-.18-2.61-.68-3.46-1.72-.85-1.04-1.09-2.24-1.07-3.77,.02,1.55-.12,2.73-.97,3.77-.85,1.04-2.13,1.54-3.46,1.72Z"/>
      <path class="cls-9" d="M180.49,136.46c1.78,.23,3.49,.92,4.63,2.3,1.14,1.38,1.33,2.97,1.3,5.04-.03-2.05,.28-3.66,1.43-5.04,1.14-1.38,2.85-2.07,4.63-2.3-1.78-.23-3.49-.92-4.63-2.3-1.14-1.38-1.45-2.99-1.43-5.04,.03,2.07-.16,3.66-1.3,5.04-1.14,1.38-2.85,2.07-4.63,2.3Z"/>
      <path class="cls-9" d="M21.78,55.72c.97,.13,1.91,.5,2.53,1.26,.62,.76,.72,1.62,.71,2.75-.01-1.12,.16-2,.78-2.75,.62-.76,1.56-1.13,2.53-1.26-.97-.13-1.91-.5-2.53-1.26-.62-.76-.79-1.63-.78-2.75,.01,1.13-.09,2-.71,2.75-.62,.76-1.56,1.13-2.53,1.26Z"/>
    </g>
  </g>
</svg>